<svg xmlns="http://www.w3.org/2000/svg" width="76.277" height="76.277" viewBox="0 0 76.277 76.277">
  <g id="Grupo_305" data-name="Grupo 305" transform="translate(-519.677 -111.664)">
    <path id="Trazado_20" data-name="Trazado 20" d="M3.6,106.4H79.877v76.277H3.6C3.6,157.2,3.6,131.882,3.6,106.4Z" transform="translate(516.077 5.264)" fill="#ed696b"/>
    <path id="Trazado_21" data-name="Trazado 21" d="M36.038,115.1c-7.931,1.519-15.525,3.206-23.119,4.725-1.181.169-1.519.675-1.519,1.856v33.076c0,1.181.338,1.688,1.519,1.856,5.4,1.013,10.632,2.194,16.032,3.206,2.363.506,4.725.844,7.088,1.35Z" transform="translate(521.44 11.246)"/>
    <path id="Trazado_22" data-name="Trazado 22" d="M12.919,119.894c-1.181.169-1.519.675-1.519,1.856v33.076c0,1.181.338,1.688,1.519,1.856,5.4,1.013,10.632,2.194,16.032,3.206,2.363.506,4.725.844,7.088,1.35V115C28.107,116.856,20.513,118.375,12.919,119.894Z" transform="translate(521.44 11.177)" fill="#fff"/>
    <path id="Trazado_23" data-name="Trazado 23" d="M49.8,121.188c0-1.35-.338-1.688-1.688-1.688H28.2v4.219H47.269V149.2H28.2v1.856H49.632v-1.519C49.632,139.919,49.632,130.638,49.8,121.188Z" transform="translate(532.99 14.271)" fill="#fff"/>
    <path id="Trazado_24" data-name="Trazado 24" d="M34.95,128.694H28.875a.726.726,0,0,1-.675-.675v-3.544a.726.726,0,0,1,.675-.675H34.95a.726.726,0,0,1,.675.675v3.544A.726.726,0,0,1,34.95,128.694Z" transform="translate(532.99 17.227)" fill="#fff"/>
    <path id="Trazado_25" data-name="Trazado 25" d="M40.65,128.694H34.575a.726.726,0,0,1-.675-.675v-3.544a.726.726,0,0,1,.675-.675H40.65a.726.726,0,0,1,.675.675v3.544A.726.726,0,0,1,40.65,128.694Z" transform="translate(536.909 17.227)" fill="#fff"/>
    <path id="Trazado_26" data-name="Trazado 26" d="M34.95,132.994H28.875a.726.726,0,0,1-.675-.675v-3.544a.726.726,0,0,1,.675-.675H34.95a.726.726,0,0,1,.675.675v3.544A.618.618,0,0,1,34.95,132.994Z" transform="translate(532.99 20.184)" fill="#fff"/>
    <path id="Trazado_27" data-name="Trazado 27" d="M40.65,132.994H34.575a.726.726,0,0,1-.675-.675v-3.544a.726.726,0,0,1,.675-.675H40.65a.726.726,0,0,1,.675.675v3.544A.618.618,0,0,1,40.65,132.994Z" transform="translate(536.909 20.184)" fill="#fff"/>
    <path id="Trazado_28" data-name="Trazado 28" d="M40.65,137.394H34.575a.726.726,0,0,1-.675-.675v-3.544a.726.726,0,0,1,.675-.675H40.65a.726.726,0,0,1,.675.675v3.544A.726.726,0,0,1,40.65,137.394Z" transform="translate(536.909 23.209)" fill="#fff"/>
    <path id="Trazado_29" data-name="Trazado 29" d="M20.088,137.344c.506-1.013,1.013-1.856,1.519-2.869a23.632,23.632,0,0,1,1.688-2.7,12.88,12.88,0,0,1,1.35-1.856,8.452,8.452,0,0,1,1.181-1.35,8,8,0,0,1,1.688-1.688c.506-.506,1.181-.844,1.688-1.35a10.105,10.105,0,0,1,2.7-1.35,8.355,8.355,0,0,1,2.194-.675c.675-.169,1.35-.169,2.025-.337a1.015,1.015,0,0,0,.675-.169h0c-.169.169-.338.169-.506.338-.675.506-1.519,1.013-2.194,1.519a9.274,9.274,0,0,0-1.519,1.181c-.338.338-.844.675-1.181,1.013s-.844.675-1.181,1.013l-1.35,1.35a14.756,14.756,0,0,0-1.35,1.688c-.506.675-.844,1.181-1.35,1.856a16.862,16.862,0,0,0-1.35,2.363L23.8,137.344l-1.013,2.531c0,.169-.169.337-.169.506a.363.363,0,0,1-.338.337c-1.013.506-2.025,1.181-3.038,1.688l-.169.169h-.338c-.338-.506-.844-1.013-1.181-1.519l-1.013-1.013c-.169-.337-.506-.506-.844-.844l-.675-.675-.675-.675c-.338-.338-.844-.675-1.181-1.013L13,136.669c.844-1.013,1.688-2.194,2.7-3.375A20.489,20.489,0,0,1,20.088,137.344Z" transform="translate(522.54 16.677)" fill="#ed696b"/>
  </g>
</svg>
