<svg xmlns="http://www.w3.org/2000/svg" width="376.323" height="84.209" viewBox="0 0 376.323 84.209">
  <g id="Grupo_305" data-name="Grupo 305" transform="translate(-519.677 -111.664)">
    <path id="Trazado_11" data-name="Trazado 11" d="M99.539,150.282a28.532,28.532,0,0,1-4.388,8.775,21.078,21.078,0,0,1-7.088,6.244,18.317,18.317,0,0,1-9.113,2.363,18.564,18.564,0,0,1-5.231-.675,30.81,30.81,0,0,1-4.725-1.688,33.153,33.153,0,0,1-4.219-2.194c-1.35-.844-2.363-1.688-3.375-2.363V111.3l17.888.169A18.986,18.986,0,0,1,89.245,114a20.96,20.96,0,0,1,6.75,6.581,30.732,30.732,0,0,1,3.881,9.282,43.1,43.1,0,0,1,1.35,10.294A39.722,39.722,0,0,1,99.539,150.282Zm-6.581-18.226a23.348,23.348,0,0,0-2.869-7.931,16.965,16.965,0,0,0-5.738-5.738c-2.363-1.519-5.569-2.194-9.45-2.363H67.981V159.4a16.538,16.538,0,0,0,4.219,2.7,12,12,0,0,0,5.4,1.181,12.478,12.478,0,0,0,7.088-2.025,18.687,18.687,0,0,0,5.063-5.231,25.356,25.356,0,0,0,3.038-7.256A31.651,31.651,0,0,0,93.8,141,53.469,53.469,0,0,0,92.957,132.057Z" transform="translate(555.817 9.19)" fill="#525c6f"/>
    <path id="Trazado_12" data-name="Trazado 12" d="M109.331,159.307a23.6,23.6,0,0,1-10.125,1.856,12.273,12.273,0,0,1-4.894-1.181,12.41,12.41,0,0,1-6.75-6.75,9.718,9.718,0,0,1-.844-4.894,12.33,12.33,0,0,1,1.013-5.063,10.464,10.464,0,0,1,2.869-3.713,11.428,11.428,0,0,1,4.219-2.363,16.991,16.991,0,0,1,5.231-.844h10.463v-3.713a5.779,5.779,0,0,0-.675-3.038,8.207,8.207,0,0,0-1.856-2.363,8.558,8.558,0,0,0-2.7-1.519,9.826,9.826,0,0,0-3.206-.506,17.085,17.085,0,0,0-5.231.675,37.79,37.79,0,0,0-4.894,2.025l-1.519-3.713a31.418,31.418,0,0,1,6.413-2.531,29.163,29.163,0,0,1,6.919-.675,14.773,14.773,0,0,1,8.775,3.038,11.551,11.551,0,0,1,2.869,3.544,10.865,10.865,0,0,1,1.181,4.725v22.276A20.82,20.82,0,0,1,109.331,159.307Zm1.013-18.732h-3.713a45.816,45.816,0,0,0-4.725.169,9.572,9.572,0,0,0-6.244,2.025,7.828,7.828,0,0,0-1.856,8.944,9.644,9.644,0,0,0,1.856,2.7,7.068,7.068,0,0,0,2.7,1.856,7.827,7.827,0,0,0,3.544.675,12.329,12.329,0,0,0,5.063-1.013,14.638,14.638,0,0,0,3.206-2.194V140.576Z" transform="translate(573.195 15.302)" fill="#525c6f"/>
    <path id="Trazado_13" data-name="Trazado 13" d="M108.3,115.219a4.046,4.046,0,1,1,1.181,3.038,3.611,3.611,0,0,1-1.181-3.038Zm1.013,14.682,6.413-2.194v39.657h-6.413Z" transform="translate(588.063 8.427)" fill="#525c6f"/>
    <path id="Trazado_14" data-name="Trazado 14" d="M120.844,168.008a8.924,8.924,0,0,1-3.544-7.594V110.125l6.244-2.025v52.145c0,2.531.675,4.219,1.856,5.063a9.6,9.6,0,0,0,5.231,1.35v3.375C126.582,170.371,123.206,169.7,120.844,168.008Z" transform="translate(594.251 6.433)" fill="#525c6f"/>
    <path id="Trazado_15" data-name="Trazado 15" d="M133.35,147.763a8.187,8.187,0,0,0,2.869,6.75,10.785,10.785,0,0,0,7.088,2.194,15.52,15.52,0,0,0,5.231-1.181,46.112,46.112,0,0,0,4.219-2.194V121.944h6.413v34.932a28.6,28.6,0,0,1-.169,3.713,32.774,32.774,0,0,1-.338,4.05,26.526,26.526,0,0,1-.675,3.881,14.157,14.157,0,0,1-1.181,3.206,15.426,15.426,0,0,1-3.375,4.05,17.288,17.288,0,0,1-4.894,2.7,28.373,28.373,0,0,1-5.4,1.519,28.841,28.841,0,0,1-5.231.506l-1.013-4.05c1.181-.169,2.531-.337,4.05-.675a17.136,17.136,0,0,0,4.219-1.013,15.29,15.29,0,0,0,3.713-1.856,7.837,7.837,0,0,0,2.7-3.038,6.619,6.619,0,0,0,.844-2.194,14.768,14.768,0,0,0,.338-2.7,15.442,15.442,0,0,0,.169-2.7v-4.05c-1.013.506-2.531,1.013-4.894,1.856a26.05,26.05,0,0,1-8.944,1.181,13.22,13.22,0,0,1-4.388-.675,11.785,11.785,0,0,1-4.05-2.194,11.551,11.551,0,0,1-2.869-3.544,10.865,10.865,0,0,1-1.181-4.725V123.294l6.581-2.194v26.663Z" transform="translate(600.645 15.371)" fill="#525c6f"/>
    <path id="Trazado_16" data-name="Trazado 16" d="M189.189,115.956H172.819v51.3h-6.581v-51.3H149.7l2.025-4.388,37.295-.169v4.556Z" transform="translate(616.528 9.09)" fill="#525c6f"/>
    <path id="Trazado_17" data-name="Trazado 17" d="M192.531,159.307a23.6,23.6,0,0,1-10.125,1.856,12.273,12.273,0,0,1-4.894-1.181,12.41,12.41,0,0,1-6.75-6.75,9.718,9.718,0,0,1-.844-4.894,12.329,12.329,0,0,1,1.013-5.063,10.464,10.464,0,0,1,2.869-3.713,11.429,11.429,0,0,1,4.219-2.363,16.991,16.991,0,0,1,5.231-.844h10.463v-3.713a5.779,5.779,0,0,0-.675-3.038,8.207,8.207,0,0,0-1.856-2.363,8.558,8.558,0,0,0-2.7-1.519,9.826,9.826,0,0,0-3.206-.506,17.086,17.086,0,0,0-5.231.675,37.791,37.791,0,0,0-4.894,2.025l-1.519-3.713a31.418,31.418,0,0,1,6.413-2.531,29.163,29.163,0,0,1,6.919-.675,14.773,14.773,0,0,1,8.775,3.038,11.55,11.55,0,0,1,2.869,3.544,10.865,10.865,0,0,1,1.181,4.725v22.276A22.525,22.525,0,0,1,192.531,159.307Zm1.013-18.732h-3.713a45.816,45.816,0,0,0-4.725.169,9.572,9.572,0,0,0-6.244,2.025,7.828,7.828,0,0,0-1.856,8.944,9.645,9.645,0,0,0,1.856,2.7,7.068,7.068,0,0,0,2.7,1.856,7.827,7.827,0,0,0,3.544.675,12.329,12.329,0,0,0,5.063-1.013,14.638,14.638,0,0,0,3.206-2.194V140.576Z" transform="translate(630.398 15.302)" fill="#525c6f"/>
    <path id="Trazado_18" data-name="Trazado 18" d="M195.338,160.389a21.022,21.022,0,0,1-5.738-3.206l2.363-3.713a13.809,13.809,0,0,0,4.725,2.363,15.1,15.1,0,0,0,5.231,1.013,20.677,20.677,0,0,0,3.206-.338,22.535,22.535,0,0,0,3.038-1.181,8.26,8.26,0,0,0,2.194-2.025,4.793,4.793,0,0,0,.675-3.206,3.571,3.571,0,0,0-.675-2.363,4.787,4.787,0,0,0-1.519-1.688,12.587,12.587,0,0,0-2.025-1.181,18.93,18.93,0,0,0-2.194-.844c-.506-.169-1.181-.506-1.688-.675s-1.181-.506-1.856-.675a30.42,30.42,0,0,0-3.544-1.35,21.617,21.617,0,0,1-3.375-1.856,14.664,14.664,0,0,1-2.7-2.869,8.877,8.877,0,0,1-1.013-4.388,9.558,9.558,0,0,1,1.181-4.894,10.548,10.548,0,0,1,3.038-3.544,11.923,11.923,0,0,1,4.388-2.194,16.685,16.685,0,0,1,5.063-.675,21.432,21.432,0,0,1,5.738.844,21.89,21.89,0,0,1,5.4,2.363l-2.363,3.713a20.225,20.225,0,0,0-8.438-2.531,13.116,13.116,0,0,0-2.7.338,8.55,8.55,0,0,0-2.531,1.181,6.477,6.477,0,0,0-1.856,1.856,4.952,4.952,0,0,0-.675,2.7,4.294,4.294,0,0,0,.844,2.7,8.471,8.471,0,0,0,2.363,1.688c1.013.506,2.194,1.013,3.375,1.519s2.531,1.013,3.713,1.519l3.544,1.519a13.8,13.8,0,0,1,3.375,2.025,15.77,15.77,0,0,1,2.7,3.038,8.877,8.877,0,0,1,1.013,4.388,11.132,11.132,0,0,1-1.35,5.4,9.38,9.38,0,0,1-3.544,3.713,16.088,16.088,0,0,1-4.894,2.194,20.576,20.576,0,0,1-5.4.675A23.007,23.007,0,0,1,195.338,160.389Z" transform="translate(643.961 15.233)" fill="#525c6f"/>
    <path id="Trazado_19" data-name="Trazado 19" d="M239.251,169.5h-7.594l-13.5-20.757-3.544,3.206v17.382H208.2V110.094l6.413-2.194v38.139l18.057-16.369,3.206,3.038L223.05,144.182Z" transform="translate(656.749 6.295)" fill="#525c6f"/>
    <path id="Trazado_20" data-name="Trazado 20" d="M3.6,106.4H79.877v76.277H3.6C3.6,157.2,3.6,131.882,3.6,106.4Z" transform="translate(516.077 5.264)" fill="#ed696b"/>
    <path id="Trazado_21" data-name="Trazado 21" d="M36.038,115.1c-7.931,1.519-15.525,3.206-23.119,4.725-1.181.169-1.519.675-1.519,1.856v33.076c0,1.181.338,1.688,1.519,1.856,5.4,1.013,10.632,2.194,16.032,3.206,2.363.506,4.725.844,7.088,1.35Z" transform="translate(521.44 11.246)"/>
    <path id="Trazado_22" data-name="Trazado 22" d="M12.919,119.894c-1.181.169-1.519.675-1.519,1.856v33.076c0,1.181.338,1.688,1.519,1.856,5.4,1.013,10.632,2.194,16.032,3.206,2.363.506,4.725.844,7.088,1.35V115C28.107,116.856,20.513,118.375,12.919,119.894Z" transform="translate(521.44 11.177)" fill="#fff"/>
    <path id="Trazado_23" data-name="Trazado 23" d="M49.8,121.188c0-1.35-.338-1.688-1.688-1.688H28.2v4.219H47.269V149.2H28.2v1.856H49.632v-1.519C49.632,139.919,49.632,130.638,49.8,121.188Z" transform="translate(532.99 14.271)" fill="#fff"/>
    <path id="Trazado_24" data-name="Trazado 24" d="M34.95,128.694H28.875a.726.726,0,0,1-.675-.675v-3.544a.726.726,0,0,1,.675-.675H34.95a.726.726,0,0,1,.675.675v3.544A.726.726,0,0,1,34.95,128.694Z" transform="translate(532.99 17.227)" fill="#fff"/>
    <path id="Trazado_25" data-name="Trazado 25" d="M40.65,128.694H34.575a.726.726,0,0,1-.675-.675v-3.544a.726.726,0,0,1,.675-.675H40.65a.726.726,0,0,1,.675.675v3.544A.726.726,0,0,1,40.65,128.694Z" transform="translate(536.909 17.227)" fill="#fff"/>
    <path id="Trazado_26" data-name="Trazado 26" d="M34.95,132.994H28.875a.726.726,0,0,1-.675-.675v-3.544a.726.726,0,0,1,.675-.675H34.95a.726.726,0,0,1,.675.675v3.544A.618.618,0,0,1,34.95,132.994Z" transform="translate(532.99 20.184)" fill="#fff"/>
    <path id="Trazado_27" data-name="Trazado 27" d="M40.65,132.994H34.575a.726.726,0,0,1-.675-.675v-3.544a.726.726,0,0,1,.675-.675H40.65a.726.726,0,0,1,.675.675v3.544A.618.618,0,0,1,40.65,132.994Z" transform="translate(536.909 20.184)" fill="#fff"/>
    <path id="Trazado_28" data-name="Trazado 28" d="M40.65,137.394H34.575a.726.726,0,0,1-.675-.675v-3.544a.726.726,0,0,1,.675-.675H40.65a.726.726,0,0,1,.675.675v3.544A.726.726,0,0,1,40.65,137.394Z" transform="translate(536.909 23.209)" fill="#fff"/>
    <path id="Trazado_29" data-name="Trazado 29" d="M20.088,137.344c.506-1.013,1.013-1.856,1.519-2.869a23.632,23.632,0,0,1,1.688-2.7,12.88,12.88,0,0,1,1.35-1.856,8.452,8.452,0,0,1,1.181-1.35,8,8,0,0,1,1.688-1.688c.506-.506,1.181-.844,1.688-1.35a10.105,10.105,0,0,1,2.7-1.35,8.355,8.355,0,0,1,2.194-.675c.675-.169,1.35-.169,2.025-.337a1.015,1.015,0,0,0,.675-.169h0c-.169.169-.338.169-.506.338-.675.506-1.519,1.013-2.194,1.519a9.274,9.274,0,0,0-1.519,1.181c-.338.338-.844.675-1.181,1.013s-.844.675-1.181,1.013l-1.35,1.35a14.756,14.756,0,0,0-1.35,1.688c-.506.675-.844,1.181-1.35,1.856a16.862,16.862,0,0,0-1.35,2.363L23.8,137.344l-1.013,2.531c0,.169-.169.337-.169.506a.363.363,0,0,1-.338.337c-1.013.506-2.025,1.181-3.038,1.688l-.169.169h-.338c-.338-.506-.844-1.013-1.181-1.519l-1.013-1.013c-.169-.337-.506-.506-.844-.844l-.675-.675-.675-.675c-.338-.338-.844-.675-1.181-1.013L13,136.669c.844-1.013,1.688-2.194,2.7-3.375A20.489,20.489,0,0,1,20.088,137.344Z" transform="translate(522.54 16.677)" fill="#ed696b"/>
  </g>
</svg>
